# xmcd CD database file
#
# Track frame offsets:
#	183
#	26508
#	47733
#	63858
#	81108
#	97458
#	109158
#	118983
#	164133
#	183858
#	195033
#	203133
#	238758
#	254958
#	271758
#
# Disc length: 3984 seconds
#
# Revision: 5
# Processed by: cddbd v1.5.2PL0 Copyright (c) Steve Scherf et al.
# Submitted via: CDex 1.51
#
DISCID=d90f8e0f
DTITLE=Wolfgang Amadeus Mozart - Complete Symphonies (Marriner) [CD7 of 12)
DYEAR=1996
DGENRE=Classical
TTITLE0=Symphony No.21 in A, KV 134 - i. Allegro
TTITLE1=Symphony No.21 in A, KV 134 - ii. Andante
TTITLE2=Symphony No.21 in A, KV 134 - iii. Menuetto
TTITLE3=Symphony No.21 in A, KV 134 - iv. Allegro
TTITLE4=Symphony No.22 in C, KV 162 - i. Allegro assai
TTITLE5=Symphony No.22 in C, KV 162 - ii. Andantino grazioso
TTITLE6=Symphony No.22 in C, KV 162 - iii. Presto assai
TTITLE7=Symphony No.23 in D, KV 181,162b - i.Allegro spritoso ii.Andantino gazioso iii.Preso assai
TTITLE8=Symphony No.24 in B-flat, KV 182,173dA - i. Allegro spiritoso
TTITLE9=Symphony No.24 in B-flat, KV 182,173dA - ii. Andantino grazioso
TTITLE10=Symphony No.24 in B-flat, KV 182,173dA - iii. Allegro
TTITLE11=Symphony No.25 in G minor, KV 183,173dB - i. Allegro con brio
TTITLE12=Symphony No.25 in G minor, KV 183,173dB - ii. Andante
TTITLE13=Symphony No.25 in G minor, KV 183,173dB - iii. Menuetto
TTITLE14=Symphony No.25 in G minor, KV 183,173dB - iv. Allegro
EXTD=YEAR: 1996
EXTT0=
EXTT1=
EXTT2=
EXTT3=
EXTT4=
EXTT5=
EXTT6=
EXTT7=
EXTT8=
EXTT9=
EXTT10=
EXTT11=
EXTT12=
EXTT13=
EXTT14=
PLAYORDER=
